<svg width="42" height="38" viewBox="0 0 42 38" fill="none" xmlns="http://www.w3.org/2000/svg">
<path d="M26 33H4C2.343 33 1 31.657 1 30V4C1 2.343 2.343 1 4 1H30C31.657 1 33 2.343 33 4V10" stroke="#EF3024" stroke-width="2" stroke-miterlimit="10" stroke-linecap="round" stroke-linejoin="round"/>
<path d="M36 24V24.5V24Z" stroke="#EF3024" stroke-width="2" stroke-miterlimit="10" stroke-linecap="round" stroke-linejoin="round"/>
<path d="M36 20V20.5V20Z" stroke="#EF3024" stroke-width="2" stroke-miterlimit="10" stroke-linecap="round" stroke-linejoin="round"/>
<path d="M34 22V22.5V22Z" stroke="#EF3024" stroke-width="2" stroke-miterlimit="10" stroke-linecap="round" stroke-linejoin="round"/>
<path d="M38 22V22.5V22Z" stroke="#EF3024" stroke-width="2" stroke-miterlimit="10" stroke-linecap="round" stroke-linejoin="round"/>
<path d="M41 16C41 15.422 38.758 15 35.998 15C33.238 15 31 15.468 31 16.046V34.5C31 35.881 33.237 37 35.998 37C38.759 37 41 35.881 41 34.5V16Z" stroke="#EF3024" stroke-width="2" stroke-miterlimit="10" stroke-linecap="round" stroke-linejoin="round"/>
<path d="M14 13H8" stroke="#EF3024" stroke-width="2" stroke-miterlimit="10" stroke-linecap="round" stroke-linejoin="round"/>
<path d="M11 13V22" stroke="#EF3024" stroke-width="2" stroke-miterlimit="10" stroke-linecap="round" stroke-linejoin="round"/>
<path d="M25 13L21 22L17 13" stroke="#EF3024" stroke-width="2" stroke-miterlimit="10" stroke-linecap="round" stroke-linejoin="round"/>
</svg>
