<svg width="44" height="39" viewBox="0 0 44 39" fill="none" xmlns="http://www.w3.org/2000/svg">
<path d="M34.7387 5.72852C39.1553 9.14807 42 14.5832 42 20.6385H31.7313C31.7313 18.0434 30.6467 15.8375 28.9293 14.2856L34.7387 5.72852Z" stroke="#EF3024" stroke-width="2" stroke-miterlimit="10"/>
<path d="M21.8393 1C25.3394 1 28.6149 1.95414 31.4221 3.60899L25.6118 12.0874C24.4724 11.5277 23.1955 11.2041 21.8393 11.2041C20.4822 11.2041 19.2053 11.5268 18.0659 12.0874L12.2556 3.60899C15.0628 1.95328 18.3383 1 21.8393 1Z" stroke="#EF3024" stroke-width="2" stroke-miterlimit="10"/>
<path d="M11.5752 20.6385H2.00016C2.00016 14.5831 4.5976 9.28552 8.92376 5.93604L14.1865 13.718" stroke="#EF3024" stroke-width="2" stroke-miterlimit="10"/>
<path d="M11.5751 15.448L19.6129 17.9558C20.6313 17.3347 21.9326 17.2188 23.0894 17.7707C24.9017 18.634 25.666 20.794 24.7973 22.5942C23.9286 24.3952 21.755 25.1547 19.9428 24.2905C18.7859 23.7386 18.0626 22.6582 17.912 21.48L10.7046 17.1781L11.5751 15.448Z" stroke="#EF3024" stroke-width="2" stroke-miterlimit="10"/>
<path d="M31.5571 24.0986H41.9138C41.4281 29.4464 38.7297 34.1601 34.7387 37.25L28.9293 28.7068C30.2497 27.5139 31.1898 25.9403 31.5571 24.0986Z" stroke="#EF3024" stroke-width="2" stroke-miterlimit="10"/>
<path d="M12.3566 24.0986H1.99996C2.4848 29.2889 5.18408 34.1601 9.17425 37.25L14.9836 28.7068C13.664 27.5139 12.724 25.8287 12.3566 24.0986Z" stroke="#EF3024" stroke-width="2" stroke-miterlimit="10"/>
</svg>
