<svg width="16" height="16" viewBox="0 0 16 16" fill="none" xmlns="http://www.w3.org/2000/svg">
<g clip-path="url(#clip0_425_5740)">
<path d="M8 16C12.4187 16 16 12.4187 16 8C16 3.58133 12.4187 0 8 0C3.58133 0 0 3.58133 0 8C0 12.4187 3.58133 16 8 16Z" fill="#EF3024"/>
<path d="M3.4364 7.9306L8.82485 5.71105C9.3564 5.47994 11.16 4.73949 11.16 4.73949C11.16 4.73949 11.9928 4.41594 11.9226 5.2026C11.8995 5.52616 11.7155 6.65949 11.5297 7.88527L10.952 11.5155C10.952 11.5155 10.9057 12.047 10.5128 12.1395C10.12 12.2319 9.47196 11.8159 9.3564 11.7226C9.26396 11.6533 7.62307 10.6133 7.02129 10.1048C6.85862 9.96616 6.67462 9.68794 7.0444 9.36438C7.87729 8.60171 8.87107 7.65327 9.47107 7.05238C9.74929 6.77416 10.0257 6.12705 8.87018 6.91371L5.61062 9.11105C5.61062 9.11105 5.24085 9.34216 4.54662 9.13327C3.85329 8.92616 3.0444 8.64794 3.0444 8.64794C3.0444 8.64794 2.48885 8.30038 3.4364 7.9306Z" fill="white"/>
</g>
<defs>
<clipPath id="clip0_425_5740">
<rect width="16" height="16" fill="white"/>
</clipPath>
</defs>
</svg>
