<svg width="16" height="16" viewBox="0 0 16 16" fill="none" xmlns="http://www.w3.org/2000/svg">
<g clip-path="url(#clip0_425_5743)">
<path d="M15.3822 4.76622C14.9831 3.83378 14.4071 2.99289 13.6969 2.28711C12.9849 1.58044 12.1378 1.00889 11.1982 0.613333C10.2578 0.218667 9.22575 0 8.1422 0C7.05864 0 6.02576 0.218667 5.0862 0.613333C4.14664 1.00889 3.29953 1.58044 2.58753 2.28711C1.87642 2.99289 1.29953 3.83378 0.9022 4.76622C0.503978 5.69956 0.283534 6.72444 0.283534 7.79911C0.283534 8.14756 0.306645 8.49244 0.352867 8.83467C0.399089 9.17689 0.467534 9.51467 0.5582 9.84622C0.648867 10.1778 0.761756 10.5031 0.895089 10.8204C1.02842 11.1378 1.18487 11.4462 1.36087 11.744L1.02398 12.7396L0.6862 13.7342L0.349311 14.7298L0.0115336 15.7253C0.00442253 15.744 0.000866971 15.7627 -2.19184e-05 15.7822C-0.000910807 15.8009 0.000866971 15.8204 0.00531141 15.8382C0.00975586 15.856 0.0159781 15.8747 0.024867 15.8916C0.0337559 15.9084 0.0453114 15.9236 0.0595336 15.9378C0.0693114 15.9484 0.0799781 15.9564 0.0915336 15.9644C0.103089 15.9724 0.115534 15.9796 0.127978 15.984C0.140423 15.9884 0.153756 15.9929 0.167089 15.9956C0.180422 15.9982 0.193756 16 0.207978 16C0.213311 16 0.218645 16 0.223978 15.9991C0.229311 15.9991 0.234645 15.9982 0.239978 15.9973C0.245311 15.9964 0.250645 15.9956 0.255978 15.9947C0.261311 15.9929 0.266645 15.992 0.271978 15.9902L1.30931 15.6604L2.34664 15.3307L3.38487 15.0009L4.4222 14.6711C4.70664 14.8231 4.99909 14.9564 5.30042 15.072C5.60087 15.1876 5.90842 15.2844 6.22131 15.3627C6.5342 15.44 6.85153 15.4987 7.17242 15.5387C7.49331 15.5778 7.81776 15.5973 8.1422 15.5973C9.22575 15.5973 10.2578 15.3796 11.1982 14.984C12.1378 14.5893 12.9849 14.0169 13.6969 13.3111C14.408 12.6053 14.9831 11.7653 15.3822 10.832C15.7795 9.89956 16 8.87467 16 7.79911C16 6.72444 15.7795 5.69956 15.3822 4.76622ZM12.2329 9.87467C12.224 9.96978 12.2089 10.0747 12.184 10.1804C12.1609 10.2871 12.128 10.3964 12.0906 10.5022C12.0418 10.6382 11.952 10.768 11.8382 10.8862C11.7244 11.0053 11.5866 11.112 11.4435 11.2036C11.2995 11.2951 11.1502 11.3707 11.0115 11.4258C10.8729 11.4809 10.7458 11.5156 10.6489 11.5236L10.6346 11.5244L10.6204 11.5262L10.6053 11.528L10.5902 11.5289C10.568 11.5316 10.5449 11.5333 10.5209 11.536C10.4969 11.5378 10.4702 11.5404 10.4444 11.5422C10.4186 11.544 10.3902 11.5458 10.3609 11.5467C10.3324 11.5476 10.3022 11.5484 10.2702 11.5484H10.2693C10.1938 11.5484 10.1031 11.5449 9.99198 11.5324C9.88175 11.5209 9.75109 11.5004 9.59464 11.4658C9.4382 11.4311 9.25598 11.3822 9.04264 11.3138C8.82842 11.2453 8.58309 11.1573 8.30131 11.0444C8.00798 10.9271 7.71553 10.776 7.42753 10.5956C7.13953 10.4142 6.85509 10.2018 6.57953 9.96178C6.30309 9.72178 6.03464 9.45511 5.77776 9.16356C5.52087 8.87111 5.27464 8.55467 5.04264 8.21511C5.0382 8.20978 5.03464 8.20356 5.03109 8.2C5.02753 8.19467 5.02487 8.19022 5.0222 8.18578C5.01864 8.18133 5.01687 8.17778 5.01509 8.17511C5.01242 8.17156 5.01064 8.16889 5.00887 8.16711C4.94842 8.08711 4.86753 7.97511 4.78042 7.83733C4.69331 7.70044 4.59998 7.53689 4.51464 7.35644C4.42842 7.176 4.35109 6.97778 4.2942 6.76889C4.23731 6.56 4.20176 6.34044 4.20176 6.11822C4.20176 5.87111 4.23198 5.65067 4.27998 5.456C4.32798 5.26133 4.39642 5.09333 4.47287 4.95022C4.5502 4.80622 4.63553 4.68889 4.71998 4.59644C4.80353 4.504 4.8862 4.43467 4.95553 4.39111C5.02131 4.34933 5.10753 4.31378 5.20264 4.28267C5.29687 4.25244 5.39998 4.22667 5.49776 4.20622C5.59553 4.18578 5.68887 4.16978 5.76442 4.15911C5.83998 4.14844 5.89776 4.14222 5.92531 4.14133C5.94753 4.14044 5.96353 4.13956 5.9742 4.13867C5.98576 4.13867 5.99198 4.13778 5.99553 4.13778C5.99909 4.13778 6.00176 4.13778 6.00442 4.13778C6.0062 4.13778 6.00887 4.13778 6.01509 4.13778C6.07287 4.13778 6.1262 4.14667 6.17687 4.16356C6.22664 4.18222 6.27287 4.20889 6.31642 4.24533C6.35909 4.28178 6.39909 4.32711 6.43642 4.38222C6.47376 4.43733 6.50753 4.504 6.53864 4.57867C6.55198 4.60978 6.59287 4.70844 6.6462 4.83733C6.70042 4.96711 6.76709 5.12978 6.83376 5.28978C6.90042 5.44978 6.9662 5.60711 7.01687 5.728C7.06842 5.84978 7.10398 5.93422 7.11109 5.94756C7.11909 5.96444 7.13242 5.98933 7.14487 6.02133C7.15731 6.05333 7.16976 6.09244 7.17687 6.13778C7.18487 6.18311 7.18753 6.232 7.18042 6.28711C7.17331 6.34133 7.15731 6.39911 7.12709 6.46044L7.11998 6.47289L7.11376 6.48622L7.10753 6.49956L7.10042 6.512C7.08798 6.53778 7.07642 6.56267 7.06398 6.58578C7.05153 6.61067 7.0382 6.63467 7.02309 6.65867C7.00887 6.68356 6.99287 6.70756 6.97509 6.73333C6.95642 6.75822 6.93598 6.78578 6.91198 6.81333C6.90398 6.82222 6.89598 6.832 6.88887 6.84C6.87998 6.84978 6.87198 6.85956 6.86398 6.86933C6.85598 6.87822 6.84798 6.888 6.84087 6.89689C6.83376 6.90578 6.82487 6.91556 6.81687 6.92533C6.79998 6.94489 6.78398 6.96533 6.76709 6.98489C6.7502 7.00444 6.73331 7.02489 6.71642 7.04444C6.69953 7.064 6.68353 7.08267 6.66664 7.10044C6.64976 7.11822 6.63376 7.13511 6.61776 7.15111C6.61242 7.15644 6.6062 7.16356 6.59909 7.16978C6.59198 7.17778 6.58487 7.18578 6.57776 7.19378C6.57064 7.20089 6.56442 7.208 6.55909 7.21511C6.55464 7.22133 6.55109 7.22756 6.5502 7.232C6.5502 7.232 6.5502 7.23289 6.5502 7.23467C6.5502 7.23644 6.55109 7.23911 6.55198 7.24356C6.55287 7.24711 6.55464 7.25244 6.5582 7.25778C6.56087 7.264 6.56442 7.27111 6.56887 7.27822C6.60176 7.33422 6.68531 7.456 6.81153 7.61867C6.93864 7.78133 7.10842 7.98133 7.31376 8.19289C7.51909 8.40356 7.75998 8.62489 8.02664 8.82756C8.29331 9.03022 8.58753 9.21333 8.90042 9.34933C8.91464 9.35556 8.93509 9.36444 8.95909 9.37422C8.98398 9.38489 9.01331 9.39556 9.03909 9.40711C9.06575 9.41778 9.09153 9.42667 9.1102 9.43467C9.12887 9.44178 9.14309 9.44711 9.14487 9.44711C9.14842 9.44711 9.15198 9.44533 9.15553 9.44355C9.15909 9.44178 9.16264 9.43822 9.16798 9.43467C9.17153 9.43111 9.17509 9.42756 9.18042 9.42311C9.18398 9.41867 9.18753 9.41511 9.19109 9.41067C9.21864 9.37956 9.26131 9.33067 9.31109 9.272C9.36176 9.21422 9.42042 9.14489 9.4782 9.07467C9.53687 9.00533 9.59553 8.93333 9.6462 8.86844C9.69687 8.80356 9.74042 8.74489 9.76976 8.70222C9.79553 8.66311 9.82398 8.62933 9.85331 8.60089C9.88264 8.57156 9.91375 8.54667 9.94664 8.528C9.97953 8.50844 10.0133 8.49333 10.0498 8.48356C10.0853 8.47378 10.1235 8.46844 10.1635 8.46844C10.1866 8.46844 10.2106 8.47022 10.2346 8.47378C10.2569 8.47733 10.2809 8.48178 10.3031 8.488C10.3253 8.49333 10.3475 8.50044 10.3698 8.50667C10.3911 8.51378 10.4133 8.52178 10.4338 8.528C10.4862 8.54667 10.5982 8.59645 10.7369 8.66133C10.8755 8.72533 11.0418 8.80444 11.2026 8.88267C11.3635 8.96 11.5182 9.03556 11.6346 9.09244C11.752 9.14933 11.8311 9.18756 11.8382 9.19111C11.8764 9.20978 11.912 9.22756 11.9466 9.24533C11.9795 9.26311 12.0115 9.28 12.04 9.29956C12.0693 9.31822 12.096 9.33867 12.12 9.36178C12.1422 9.384 12.1635 9.40978 12.1804 9.43822C12.2062 9.48089 12.2231 9.54133 12.2311 9.616C12.2409 9.69156 12.2409 9.77956 12.2329 9.87467Z" fill="#EF3024"/>
</g>
<defs>
<clipPath id="clip0_425_5743">
<rect width="16" height="16" fill="white"/>
</clipPath>
</defs>
</svg>
