<svg width="38" height="40" viewBox="0 0 38 40" fill="none" xmlns="http://www.w3.org/2000/svg">
<rect y="19" width="27" height="13" rx="3" fill="#EF3024"/>
<path d="M3.93 29C3.86333 29 3.80333 28.9767 3.75 28.93C3.70333 28.8767 3.68 28.8167 3.68 28.75V22.26C3.68 22.1867 3.70333 22.1267 3.75 22.08C3.79667 22.0267 3.85667 22 3.93 22H6.76C7.62667 22 8.30667 22.1967 8.8 22.59C9.29333 22.9833 9.54 23.56 9.54 24.32C9.54 25.08 9.29333 25.65 8.8 26.03C8.30667 26.4033 7.62667 26.59 6.76 26.59H5.62V28.75C5.62 28.8167 5.59667 28.8767 5.55 28.93C5.50333 28.9767 5.44333 29 5.37 29H3.93ZM6.71 25.16C6.98333 25.16 7.19667 25.09 7.35 24.95C7.51 24.8033 7.59 24.59 7.59 24.31C7.59 24.05 7.51667 23.84 7.37 23.68C7.23 23.52 7.01 23.44 6.71 23.44H5.59V25.16H6.71ZM10.7171 29C10.6504 29 10.5904 28.9767 10.5371 28.93C10.4904 28.8767 10.4671 28.8167 10.4671 28.75V22.26C10.4671 22.1867 10.4904 22.1267 10.5371 22.08C10.5838 22.0267 10.6438 22 10.7171 22H13.3471C14.3338 22 15.1004 22.2367 15.6471 22.71C16.1938 23.1767 16.4804 23.85 16.5071 24.73C16.5138 24.9233 16.5171 25.18 16.5171 25.5C16.5171 25.82 16.5138 26.0733 16.5071 26.26C16.4404 28.0867 15.4038 29 13.3971 29H10.7171ZM13.3471 27.5C13.7671 27.5 14.0771 27.4 14.2771 27.2C14.4771 27 14.5838 26.68 14.5971 26.24C14.6104 26.0467 14.6171 25.7967 14.6171 25.49C14.6171 25.1833 14.6104 24.9367 14.5971 24.75C14.5838 24.3233 14.4671 24.01 14.2471 23.81C14.0338 23.6033 13.7171 23.5 13.2971 23.5H12.3471V27.5H13.3471ZM17.9046 29C17.8379 29 17.7779 28.9767 17.7246 28.93C17.6779 28.8767 17.6546 28.8167 17.6546 28.75V22.26C17.6546 22.1867 17.6779 22.1267 17.7246 22.08C17.7713 22.0267 17.8313 22 17.9046 22H22.5546C22.6279 22 22.6879 22.0267 22.7346 22.08C22.7879 22.1267 22.8146 22.1867 22.8146 22.26V23.32C22.8146 23.3933 22.7879 23.4533 22.7346 23.5C22.6879 23.5467 22.6279 23.57 22.5546 23.57H19.4946V24.96H22.3546C22.4279 24.96 22.4879 24.9867 22.5346 25.04C22.5879 25.0867 22.6146 25.1467 22.6146 25.22V26.28C22.6146 26.3533 22.5879 26.4133 22.5346 26.46C22.4879 26.5067 22.4279 26.53 22.3546 26.53H19.4946V28.75C19.4946 28.8167 19.4713 28.8767 19.4246 28.93C19.3779 28.9767 19.3179 29 19.2446 29H17.9046Z" fill="white"/>
<path d="M9 17V1H26.8182M9 34V39H37V11.1333M26.8182 1L37 11.1333M26.8182 1V11.1333H37" stroke="#DCDCDF" stroke-width="2"/>
</svg>
